<?xml version="1.0" standalone="no"?>
<!DOCTYPE svg PUBLIC "-//W3C//DTD SVG 20010904//EN"
 "http://www.w3.org/TR/2001/REC-SVG-20010904/DTD/svg10.dtd">
<svg version="1.0" xmlns="http://www.w3.org/2000/svg"
 width="1080.000000pt" height="1080.000000pt" viewBox="0 0 1080.000000 1080.000000"
 preserveAspectRatio="xMidYMid meet">

<g transform="translate(0.000000,1080.000000) scale(0.100000,-0.100000)"
fill="#000000" stroke="none">
<path d="M1450 9900 c-141 -18 -257 -77 -365 -185 -88 -88 -130 -156 -167
-275 l-23 -75 0 -3965 0 -3965 23 -75 c37 -119 79 -187 167 -275 88 -88 156
-130 275 -167 l75 -23 3965 0 3965 0 75 23 c119 37 187 79 275 167 88 88 130
156 167 275 l23 75 0 3965 0 3965 -23 75 c-37 119 -79 187 -167 275 -86 86
-153 127 -270 167 l-70 23 -3935 1 c-2164 1 -3960 -2 -3990 -6z m4268 -1066
c99 -20 204 -71 278 -137 191 -170 2157 -1967 2242 -2051 57 -55 125 -128 152
-161 189 -238 317 -551 350 -861 8 -79 10 -508 8 -1569 l-3 -1460 -23 -70
c-76 -225 -204 -366 -437 -480 -212 -104 -60 -96 -1661 -93 l-1399 3 -136 37
c-399 108 -722 284 -1021 555 -353 320 -581 709 -675 1150 -25 119 -27 146
-28 373 0 262 5 308 56 514 41 165 86 283 184 481 167 340 168 342 980 1165
193 195 464 474 603 620 295 309 315 325 427 318 39 -3 85 -13 103 -22 72 -37
1373 -1399 1569 -1641 182 -226 350 -557 433 -853 209 -743 19 -1477 -527
-2043 -85 -87 -101 -109 -89 -118 10 -9 130 -11 458 -9 432 3 444 4 483 25 52
28 89 68 114 123 20 45 21 57 21 1596 0 1515 0 1553 -20 1615 -10 35 -33 85
-49 111 -18 29 -477 466 -1228 1170 -659 618 -1209 1131 -1223 1141 -33 23
-91 22 -123 -4 -15 -11 -568 -519 -1229 -1129 -818 -755 -1216 -1128 -1243
-1167 -22 -32 -49 -83 -60 -113 -19 -53 -20 -88 -23 -1039 -2 -640 1 -1003 8
-1039 5 -31 80 -279 165 -551 85 -273 163 -531 174 -573 29 -112 50 -267 53
-388 3 -89 0 -110 -15 -134 -38 -57 -34 -57 -668 -54 l-581 3 -34 37 c-33 36
-34 40 -34 118 0 225 26 349 207 980 l147 515 6 960 c6 867 8 969 24 1055 64
339 178 601 349 802 69 80 2393 2146 2480 2204 140 93 290 122 455 88z"/>
<path d="M5554 6447 c-44 -25 -1285 -1351 -1335 -1427 -197 -294 -301 -694
-269 -1030 26 -271 102 -500 243 -725 454 -729 1387 -990 2162 -605 452 224
761 664 846 1205 16 104 17 368 0 470 -27 176 -92 379 -172 537 -76 152 -137
224 -738 883 -331 363 -616 670 -633 683 -34 24 -72 28 -104 9z"/>
<path d="M2687 3093 c-9 -14 -137 -566 -137 -590 l0 -23 165 0 c124 0 167 3
170 13 6 18 -168 600 -182 604 -6 2 -13 0 -16 -4z"/>
</g>
</svg>
